<svg xmlns="http://www.w3.org/2000/svg" xmlns:xlink="http://www.w3.org/1999/xlink" version="1.1" width="256" height="256" viewBox="0 0 256 256" xml:space="preserve">

<defs>
</defs>
<g style="stroke: none; stroke-width: 0; stroke-dasharray: none; stroke-linecap: butt; stroke-linejoin: miter; stroke-miterlimit: 10; fill: none; fill-rule: nonzero; opacity: 1;" transform="translate(1.4065934065934016 1.4065934065934016) scale(2.81 2.81)" >
	<path d="M 83.418 89.286 c -0.985 0 -1.98 -0.224 -2.911 -0.681 L 3.685 50.912 C 1.412 49.797 0 47.531 0 45 c 0 -2.532 1.412 -4.798 3.685 -5.913 L 80.507 1.395 c 2.444 -1.2 5.326 -0.79 7.339 1.046 c 2.013 1.835 2.687 4.666 1.717 7.211 l -13.386 35.14 c -0.052 0.135 -0.052 0.282 -0.001 0.416 l 13.387 35.141 c 0.97 2.544 0.296 5.374 -1.716 7.21 C 86.601 88.695 85.021 89.285 83.418 89.286 z M 83.42 6.71 c -0.125 0 -0.224 0.048 -0.271 0.071 L 6.328 44.474 l 0 0 C 6.111 44.581 6 44.758 6 45 c 0 0.242 0.11 0.419 0.328 0.525 l 76.821 37.693 c 0.088 0.044 0.357 0.175 0.653 -0.093 c 0.295 -0.269 0.188 -0.549 0.152 -0.641 l -13.386 -35.14 c -0.576 -1.512 -0.576 -3.178 0.001 -4.69 L 83.955 7.515 c 0.035 -0.093 0.143 -0.373 -0.152 -0.641 C 83.665 6.748 83.531 6.71 83.42 6.71 z M 5.007 41.781 h 0.01 H 5.007 z" style="stroke: none; stroke-width: 1; stroke-dasharray: none; stroke-linecap: butt; stroke-linejoin: miter; stroke-miterlimit: 10; fill: rgb(0,0,0); fill-rule: nonzero; opacity: 1;" transform=" matrix(1 0 0 1 0 0) " stroke-linecap="round" />
</g>
</svg>