<svg xmlns="http://www.w3.org/2000/svg" version="1.1" xmlns:xlink="http://www.w3.org/1999/xlink" xmlns:svgjs="http://svgjs.dev/svgjs" width="1500" height="939" viewBox="0 0 1500 939"><g transform="matrix(1,0,0,1,-0.9090909090909918,-1.5145161290323017)"><svg viewBox="0 0 396 248" data-background-color="#ffffff" preserveAspectRatio="xMidYMid meet" height="939" width="1500" xmlns="http://www.w3.org/2000/svg" xmlns:xlink="http://www.w3.org/1999/xlink"><g id="tight-bounds" transform="matrix(1,0,0,1,0.2400000000000091,0.4000000000000057)"><svg viewBox="0 0 395.52 247.2" height="247.2" width="395.52"><g><svg></svg></g><g><svg viewBox="0 0 395.52 247.2" height="247.2" width="395.52"><g transform="matrix(1,0,0,1,75.54432,57.65973967470555)"><svg viewBox="0 0 244.43135999999998 131.8805206505889" height="131.8805206505889" width="244.43135999999998"><g><svg viewBox="0 0 244.43135999999998 131.8805206505889" height="131.8805206505889" width="244.43135999999998"><g><svg viewBox="0 0 244.43135999999998 131.8805206505889" height="131.8805206505889" width="244.43135999999998"><g><svg viewBox="0 0 244.43135999999998 131.8805206505889" height="131.8805206505889" width="244.43135999999998"><g id="textblocktransform"><svg viewBox="0 0 244.43135999999998 131.8805206505889" height="131.8805206505889" width="244.43135999999998" id="textblock"><g><svg viewBox="0 0 244.43135999999998 131.8805206505889" height="131.8805206505889" width="244.43135999999998"><g transform="matrix(1,0,0,1,0,0)"><svg width="244.43135999999998" viewBox="1.5 -37.1 89.14 48.1" height="131.8805206505889" data-palette-color="#ffffff"><path d="M18-35L18-35Q23.9-35 27.73-30.5 31.55-26 31.55-19.05L31.55-19.05Q31.55-10.95 26.55-5.05L26.55-5.05 33.15 2.8 28.2 6.45 22.45-1.55Q18.95 0.55 15.05 0.55L15.05 0.55Q9.3 0.55 5.4-4.08 1.5-8.7 1.5-15.5L1.5-15.5Q1.5-24 6.15-29.5 10.8-35 18-35ZM24.75-16.25L24.75-16.25Q24.75-28.9 16.45-28.9L16.45-28.9Q12.65-28.9 10.48-26.08 8.3-23.25 8.3-17.63 8.3-12 10.63-8.38 12.95-4.75 17-4.75L17-4.75Q18.5-4.75 19.8-5.35L19.8-5.35 13.85-13.7 17.3-16.1 23.3-8.95Q24.75-12 24.75-16.25ZM45.9-5.1L45.9-5.1Q47.35-5.1 48.95-5.85 50.55-6.6 51.45-7.35L51.45-7.35 52.35-8.1 54.65-5.3Q54.15-4.45 53.1-3.35 52.05-2.25 50.97-1.48 49.9-0.7 48.12-0.08 46.35 0.55 44.45 0.55L44.45 0.55Q40.4 0.55 37.85-2.53 35.3-5.6 35.3-10.45L35.3-10.45Q35.3-16.55 38.85-21.15 42.4-25.75 47.15-25.75L47.15-25.75Q50.8-25.75 52.82-23.7 54.85-21.65 54.85-17.95L54.85-17.95Q54.85-15.75 54.1-12.95L54.1-12.95 53.1-11.9 40.6-10.75Q41.45-5.1 45.9-5.1ZM45.9-20.6L45.9-20.6Q43.7-20.6 42.2-18.82 40.7-17.05 40.45-14.3L40.45-14.3 48.95-15.35Q49.1-16.5 49.1-17.25L49.1-17.25Q49.1-20.6 45.9-20.6ZM56.45 11L56.45 11Q54.4 11 52.34 10.55L52.34 10.55 53.9 4.85Q55.59 5.3 57.07 5.3 58.55 5.3 59.2 4.2 59.84 3.1 59.84 0.25L59.84 0.25 59.8-12.15 59.25-24.2 65.95-25.45 65.34-13 65.9-1.7Q65.9 3.5 63.09 7.25 60.3 11 56.45 11ZM58.9-32.73Q58.9-34.45 60.2-35.77 61.5-37.1 63.22-37.1 64.95-37.1 65.82-36.18 66.7-35.25 66.7-33.43 66.7-31.6 65.45-30.25 64.2-28.9 62.52-28.9 60.84-28.9 59.87-29.95 58.9-31 58.9-32.73ZM76.54 0Q73.59 0 71.72-1.88 69.84-3.75 69.84-6.93 69.84-10.1 72.74-12.43 75.64-14.75 79.79-14.75L79.79-14.75 83.19-14.75 83.19-15.6Q83.19-18.05 82.19-18.95 81.19-19.85 78.44-19.85L78.44-19.85Q77.29-19.85 75.72-19.38 74.14-18.9 72.19-17.9L72.19-17.9 70.74-21.85Q72.89-23.35 75.97-24.55 79.04-25.75 81.04-25.75L81.04-25.75Q88.89-25.75 88.89-18.15L88.89-18.15 88.89-8.35Q88.89-5.55 90.64-2.1L90.64-2.1 85.34 0.15Q84.09-2.25 83.49-4.15L83.49-4.15Q80.74 0 76.54 0L76.54 0ZM78.64-5.1L78.64-5.1Q80.64-5.1 83.19-7.15L83.19-7.15 83.19-10.5Q80.54-11.1 78.89-11.1L78.89-11.1Q75.74-11.1 75.74-8.3L75.74-8.3Q75.74-6.85 76.54-5.98 77.34-5.1 78.64-5.1Z" opacity="1" transform="matrix(1,0,0,1,0,0)" fill="#ffffff" class="wordmark-text-0" data-fill-palette-color="primary" id="text-0"></path></svg></g></svg></g></svg></g></svg></g></svg></g></svg></g></svg></g><g><path d="M0 123.6c0-68.262 55.338-123.6 123.6-123.6 37.035 0 70.266 16.289 92.919 42.093l-8.072 0c-21.408-22.28-51.508-36.146-84.847-36.146-64.978 0-117.653 52.675-117.653 117.653 0 64.978 52.675 117.653 117.653 117.653 33.338 0 63.438-13.866 84.847-36.146h8.072c-22.653 25.804-55.884 42.093-92.919 42.093-68.262 0-123.6-55.338-123.6-123.6z" fill="#ffffff" stroke="transparent" data-fill-palette-color="tertiary"></path></g></svg></g><defs></defs></svg><rect width="395.52" height="247.2" fill="none" stroke="none" visibility="hidden"></rect></g></svg></g></svg>