<?xml version="1.0" encoding="iso-8859-1"?>
<!-- Uploaded to: SVG Repo, www.svgrepo.com, Generator: SVG Repo Mixer Tools -->
<svg height="800px" width="800px" version="1.1" id="Layer_1" xmlns="http://www.w3.org/2000/svg" xmlns:xlink="http://www.w3.org/1999/xlink" 
	 viewBox="0 0 512 512" xml:space="preserve">
<path style="fill:#CFDCE5;" d="M339.419,146.168v-35.035c0-11.089-8.988-20.077-20.077-20.077h-9.434
	c-11.089,0-20.077,8.988-20.077,20.077v35.035"/>
<path style="fill:#BAC6CC;" d="M309.908,146.168V91.056l0,0c-11.089,0-20.077,8.988-20.077,20.077v35.035"/>
<path style="fill:#CFDCE5;" d="M314.625,143.399L314.625,143.399c-61.621,0-111.574,49.953-111.574,111.573v37.191h223.147v-37.191
	C426.199,193.353,376.245,143.399,314.625,143.399z"/>
<path style="fill:#BAC6CC;" d="M330.369,144.511c-5.144-0.727-10.4-1.111-15.745-1.111l0,0
	c-61.621,0-111.573,49.953-111.573,111.573v37.191h31.489v-37.191C234.541,198.698,276.206,152.163,330.369,144.511z"/>
<path d="M400.262,170.914c-3.389-3.443-8.929-3.486-12.368-0.098c-3.443,3.389-3.487,8.927-0.098,12.369
	c16.988,17.26,27.145,39.505,29.148,63.378h-22.017c-4.832,0-8.747,3.916-8.747,8.747s3.915,8.747,8.747,8.747h22.406v19.697
	H211.681v-19.697h154.091c4.832,0,8.747-3.916,8.747-8.747c0-4.831-3.915-8.747-8.747-8.747H212.056
	c4.454-52.62,48.699-94.079,102.452-94.079c18.661,0,36.933,5.048,52.84,14.596c4.141,2.484,9.514,1.144,12.002-2.998
	c2.486-4.141,1.143-9.516-2.997-12.002c-8.889-5.336-18.41-9.455-28.304-12.32v-28.288c0-14.526-10.802-26.57-24.795-28.537V56.709
	C323.254,25.44,297.814,0,266.547,0H133.88c-31.27,0-56.709,25.44-56.709,56.709v446.544c0,4.831,3.915,8.747,8.747,8.747
	s8.747-3.916,8.747-8.747V56.709c0-21.624,17.592-39.215,39.215-39.215h132.666c21.623,0,39.213,17.591,39.213,39.215v26.227
	c-13.992,1.967-24.794,14.012-24.794,28.537v28.282c-50.076,14.557-86.779,60.85-86.779,115.558v37.191
	c0,4.831,3.915,8.747,8.747,8.747h223.147c4.832,0,8.747-3.916,8.747-8.747v-37.191
	C434.828,223.532,422.553,193.559,400.262,170.914z M298.46,111.472c0-6.248,5.083-11.33,11.33-11.33h9.434
	c6.247,0,11.33,5.083,11.33,11.33v24.592c-5.298-0.71-10.66-1.073-16.048-1.073c-5.441,0-10.795,0.37-16.047,1.073V111.472
	L298.46,111.472z"/>
<path d="M221.789,468.026c-4.832,0-8.747,3.916-8.747,8.747v26.48c0,4.831,3.915,8.747,8.747,8.747s8.747-3.916,8.747-8.747v-26.48
	C230.536,471.942,226.621,468.026,221.789,468.026z"/>
<path d="M221.789,312.913c-4.832,0-8.747,3.916-8.747,8.747v127.123c0,4.831,3.915,8.747,8.747,8.747s8.747-3.916,8.747-8.747
	V321.66C230.536,316.829,226.621,312.913,221.789,312.913z"/>
<path d="M268.148,380.555c-4.832,0-8.747,3.916-8.747,8.747v113.951c0,4.831,3.915,8.747,8.747,8.747s8.747-3.916,8.747-8.747
	V389.302C276.895,384.471,272.98,380.555,268.148,380.555z"/>
<path d="M268.148,312.913c-4.832,0-8.747,3.916-8.747,8.747v39.653c0,4.831,3.915,8.747,8.747,8.747s8.747-3.916,8.747-8.747V321.66
	C276.895,316.829,272.98,312.913,268.148,312.913z"/>
<path d="M314.507,441.201c-4.832,0-8.747,3.916-8.747,8.747v53.305c0,4.831,3.915,8.747,8.747,8.747s8.747-3.916,8.747-8.747
	v-53.305C323.254,445.117,319.339,441.201,314.507,441.201z"/>
<path d="M314.507,312.913c-4.832,0-8.747,3.916-8.747,8.747v99.133c0,4.831,3.915,8.747,8.747,8.747s8.747-3.916,8.747-8.747V321.66
	C323.254,316.829,319.339,312.913,314.507,312.913z"/>
<path d="M360.866,398.049c-4.832,0-8.747,3.916-8.747,8.747v96.457c0,4.831,3.915,8.747,8.747,8.747s8.747-3.916,8.747-8.747
	v-96.457C369.613,401.965,365.698,398.049,360.866,398.049z"/>
<path d="M360.866,312.913c-4.832,0-8.747,3.916-8.747,8.747v58.313c0,4.831,3.915,8.747,8.747,8.747s8.747-3.916,8.747-8.747V321.66
	C369.613,316.829,365.698,312.913,360.866,312.913z"/>
<path d="M407.225,469.192c-4.832,0-8.747,3.916-8.747,8.747v25.314c0,4.831,3.915,8.747,8.747,8.747s8.747-3.916,8.747-8.747
	v-25.314C415.972,473.109,412.057,469.192,407.225,469.192z"/>
<path d="M407.225,312.913c-4.832,0-8.747,3.916-8.747,8.747v128.289c0,4.831,3.915,8.747,8.747,8.747s8.747-3.916,8.747-8.747
	V321.66C415.972,316.829,412.057,312.913,407.225,312.913z"/>
</svg>